<?xml version="1.0" encoding="UTF-8" standalone="no"?>
<!-- Created with Inkscape (http://www.inkscape.org/) -->

<svg
   xmlns:dc="http://purl.org/dc/elements/1.1/"
   xmlns:cc="http://creativecommons.org/ns#"
   xmlns:rdf="http://www.w3.org/1999/02/22-rdf-syntax-ns#"
   xmlns:svg="http://www.w3.org/2000/svg"
   xmlns="http://www.w3.org/2000/svg"
   xmlns:sodipodi="http://sodipodi.sourceforge.net/DTD/sodipodi-0.dtd"
   xmlns:inkscape="http://www.inkscape.org/namespaces/inkscape"
   width="91.70343mm"
   height="67.428741mm"
   viewBox="0 0 324.93341 238.92074"
   id="svg4333"
   version="1.1"
   inkscape:version="0.91 r13725"
   sodipodi:docname="abersailbot-logo-paths.svg">
  <defs
     id="defs4335" />
  <sodipodi:namedview
     id="base"
     pagecolor="#ffffff"
     bordercolor="#666666"
     borderopacity="1.0"
     inkscape:pageopacity="0"
     inkscape:pageshadow="2"
     inkscape:zoom="1.4"
     inkscape:cx="187.16505"
     inkscape:cy="82.239762"
     inkscape:document-units="px"
     inkscape:current-layer="layer1"
     showgrid="false"
     fit-margin-top="10"
     fit-margin-left="10"
     fit-margin-right="10"
     fit-margin-bottom="10"
     inkscape:window-width="1366"
     inkscape:window-height="704"
     inkscape:window-x="0"
     inkscape:window-y="27"
     inkscape:window-maximized="1" />
  <metadata
     id="metadata4338">
    <rdf:RDF>
      <cc:Work
         rdf:about="">
        <dc:format>image/svg+xml</dc:format>
        <dc:type
           rdf:resource="http://purl.org/dc/dcmitype/StillImage" />
        <dc:title></dc:title>
      </cc:Work>
    </rdf:RDF>
  </metadata>
  <g
     inkscape:label="Layer 1"
     inkscape:groupmode="layer"
     id="layer1"
     transform="translate(-173.48759,-543.93961)">
    <g
       transform="translate(208.92055,579.37268)"
       style="font-style:normal;font-weight:normal;font-size:30.17425919px;line-height:125%;font-family:Sans;letter-spacing:0px;word-spacing:0px;fill:#000000;fill-opacity:1;stroke:none"
       id="flowRoot3004">
      <path
         d="m 5.9444361,165.91223 q 0.935402,0 1.6595842,-0.0603 0.7543565,-0.0603 1.2371447,-0.15087 l 0,-4.16405 q -0.4827882,-0.15087 -1.1767961,-0.24139 -0.6638337,-0.0905 -1.4181902,-0.0905 -0.694008,0 -1.3578417,0.12069 -0.6638337,0.0905 -1.1767961,0.3621 -0.5129624,0.27156 -0.8448792,0.72418 -0.3319169,0.42244 -0.3319169,1.08627 0,1.35784 0.9052278,1.90098 0.935402,0.51296 2.5044635,0.51296 z M 5.703042,153.35974 q 1.5690615,0 2.6251606,0.39226 1.0862733,0.39227 1.7501074,1.08628 0.663833,0.69401 0.935402,1.68976 0.271568,0.99575 0.271568,2.17254 l 0,8.75054 q -0.875054,0.15087 -2.323418,0.36209 -1.4181902,0.21122 -2.9269031,0.21122 -1.1466219,0 -2.2328952,-0.21122 -1.0862733,-0.18105 -1.9311526,-0.66383 -0.8448793,-0.51297 -1.35784166,-1.38802 -0.51296240722,-0.87505 -0.51296240722,-2.2329 0,-1.20697 0.51296240722,-2.02167 0.54313666,-0.84488 1.35784166,-1.35784 0.8448793,-0.51296 1.9009783,-0.72418 1.0862734,-0.2414 2.1725467,-0.2414 1.4785387,0 2.8967289,0.33192 l 0,-0.69401 q 0,-0.63366 -0.1508713,-1.20697 -0.1206971,-0.60349 -0.5129624,-1.08627 -0.3620911,-0.48279 -1.0259248,-0.75436 -0.6336595,-0.30174 -1.6595843,-0.30174 -1.2974931,0 -2.2630694,0.18104 -0.9655763,0.18105 -1.4785387,0.36209 l -0.3017426,-2.05185 q 0.5129624,-0.24139 1.6897585,-0.42243 1.2069704,-0.18105 2.564812,-0.18105 z"
         style="font-style:normal;font-variant:normal;font-weight:normal;font-stretch:normal;font-family:'Ubuntu Mono';-inkscape-font-specification:'Ubuntu Mono';fill:#000000;fill-opacity:1"
         id="path4997" />
      <path
         d="m 17.983966,154.20462 q 0.452613,-0.27157 1.297493,-0.54314 0.875053,-0.30174 1.931152,-0.30174 1.41819,0 2.534638,0.54314 1.116448,0.54313 1.870804,1.50871 0.784531,0.96558 1.176796,2.32342 0.42244,1.32766 0.42244,2.95707 0,1.68976 -0.482788,3.0476 -0.482788,1.35785 -1.357842,2.32342 -0.875054,0.9354 -2.112198,1.44837 -1.237145,0.51296 -2.745858,0.51296 -1.659584,0 -2.957077,-0.24139 -1.297493,-0.2414 -2.082024,-0.48279 l 0,-20.09606 2.504464,-0.42244 0,7.42287 z m 0,11.31535 q 0.57331,0.15087 1.146621,0.24139 0.573311,0.0603 1.086274,0.0603 2.082024,0 3.25882,-1.26732 1.176796,-1.29749 1.176796,-3.86231 0,-1.08627 -0.21122,-2.02167 -0.21122,-0.96558 -0.663834,-1.62941 -0.452614,-0.69401 -1.176796,-1.08627 -0.694008,-0.39227 -1.689758,-0.39227 -0.875054,0 -1.689759,0.36209 -0.814705,0.33192 -1.237144,0.72418 l 0,8.87124 z"
         style="font-style:normal;font-variant:normal;font-weight:normal;font-stretch:normal;font-family:'Ubuntu Mono';-inkscape-font-specification:'Ubuntu Mono';fill:#000000;fill-opacity:1"
         id="path4999" />
      <path
         d="m 36.239392,153.35974 q 2.836381,0 4.375268,1.78028 1.538887,1.75011 1.538887,5.34084 l 0,0.87506 -10.017854,0 q 0.150871,2.17254 1.41819,3.31917 1.297493,1.11644 3.620911,1.11644 1.327668,0 2.26307,-0.21122 0.935402,-0.21122 1.41819,-0.45261 l 0.331917,2.1122 q -0.452614,0.24139 -1.62941,0.51296 -1.176796,0.27157 -2.655335,0.27157 -1.810456,0 -3.198471,-0.54314 -1.357842,-0.57331 -2.26307,-1.53888 -0.905228,-0.96558 -1.357842,-2.29325 -0.452613,-1.35784 -0.452613,-2.9269 0,-1.87081 0.57331,-3.25882 0.573311,-1.38802 1.508713,-2.29324 0.935402,-0.90523 2.112199,-1.35785 1.176796,-0.45261 2.41394,-0.45261 z m 3.379517,5.9745 q 0,-1.78028 -0.935402,-2.8062 -0.935402,-1.0561 -2.474289,-1.0561 -0.875053,0 -1.599236,0.33191 -0.694008,0.33192 -1.20697,0.87506 -0.512962,0.54313 -0.814705,1.23714 -0.301743,0.69401 -0.392265,1.41819 l 7.422867,0 z"
         style="font-style:normal;font-variant:normal;font-weight:normal;font-stretch:normal;font-family:'Ubuntu Mono';-inkscape-font-specification:'Ubuntu Mono';fill:#000000;fill-opacity:1"
         id="path5001" />
      <path
         d="m 46.740036,167.69251 0,-13.2465 q 3.077775,-1.0561 6.215898,-1.0561 0.965576,0 1.84063,0.0905 0.875053,0.0603 1.931152,0.30174 l -0.452614,2.20272 q -0.965576,-0.27157 -1.719932,-0.33192 -0.724183,-0.0905 -1.599236,-0.0905 -1.84063,0 -3.741608,0.51296 l 0,11.61709 -2.47429,0 z"
         style="font-style:normal;font-variant:normal;font-weight:normal;font-stretch:normal;font-family:'Ubuntu Mono';-inkscape-font-specification:'Ubuntu Mono';fill:#000000;fill-opacity:1"
         id="path5003" />
      <path
         d="m 69.189683,164.1923 q 0,-0.75436 -0.633659,-1.23715 -0.603485,-0.48278 -1.538887,-0.84488 -0.905228,-0.36209 -1.991501,-0.694 -1.086274,-0.36209 -2.021676,-0.87506 -0.905228,-0.51296 -1.538887,-1.26732 -0.603485,-0.75435 -0.603485,-1.96132 0,-1.68976 1.357841,-2.80621 1.388016,-1.14662 4.31492,-1.14662 1.146621,0 2.353592,0.18105 1.237144,0.15087 2.112198,0.42243 l -0.452614,2.2329 q -0.241394,-0.1207 -0.663834,-0.24139 -0.422439,-0.15088 -0.965576,-0.2414 -0.543137,-0.1207 -1.176796,-0.18104 -0.603485,-0.0603 -1.176796,-0.0603 -3.25882,0 -3.25882,1.78028 0,0.63366 0.603485,1.08627 0.633659,0.42244 1.569061,0.78453 0.935403,0.36209 2.021676,0.75436 1.086273,0.36209 2.021675,0.90523 0.935402,0.54313 1.538887,1.32766 0.63366,0.75436 0.63366,1.93116 0,1.90098 -1.478539,2.95707 -1.478539,1.02593 -4.67701,1.02593 -1.448364,0 -2.655335,-0.24139 -1.20697,-0.2414 -2.293244,-0.72419 l 0.482789,-2.26307 q 1.056099,0.48279 2.202721,0.81471 1.176796,0.30174 2.504463,0.30174 3.409691,0 3.409691,-1.71993 z"
         style="font-style:normal;font-variant:normal;font-weight:normal;font-stretch:normal;font-family:'Ubuntu Mono';-inkscape-font-specification:'Ubuntu Mono';fill:#000000;fill-opacity:1"
         id="path5005" />
      <path
         d="m 81.380082,165.91223 q 0.935402,0 1.659584,-0.0603 0.754357,-0.0603 1.237145,-0.15087 l 0,-4.16405 q -0.482788,-0.15087 -1.176796,-0.24139 -0.663834,-0.0905 -1.41819,-0.0905 -0.694008,0 -1.357842,0.12069 -0.663834,0.0905 -1.176796,0.3621 -0.512962,0.27156 -0.844879,0.72418 -0.331917,0.42244 -0.331917,1.08627 0,1.35784 0.905228,1.90098 0.935402,0.51296 2.504463,0.51296 z m -0.241394,-12.55249 q 1.569062,0 2.625161,0.39226 1.086273,0.39227 1.750107,1.08628 0.663833,0.69401 0.935402,1.68976 0.271568,0.99575 0.271568,2.17254 l 0,8.75054 q -0.875053,0.15087 -2.323418,0.36209 -1.41819,0.21122 -2.926903,0.21122 -1.146622,0 -2.232895,-0.21122 -1.086274,-0.18105 -1.931153,-0.66383 -0.844879,-0.51297 -1.357842,-1.38802 -0.512962,-0.87505 -0.512962,-2.2329 0,-1.20697 0.512962,-2.02167 0.543137,-0.84488 1.357842,-1.35784 0.844879,-0.51296 1.900978,-0.72418 1.086274,-0.2414 2.172547,-0.2414 1.478539,0 2.896729,0.33192 l 0,-0.69401 q 0,-0.63366 -0.150871,-1.20697 -0.120697,-0.60349 -0.512963,-1.08627 -0.362091,-0.48279 -1.025924,-0.75436 -0.63366,-0.30174 -1.659585,-0.30174 -1.297493,0 -2.263069,0.18104 -0.965576,0.18105 -1.478539,0.36209 l -0.301742,-2.05185 q 0.512962,-0.24139 1.689758,-0.42243 1.20697,-0.18105 2.564812,-0.18105 z"
         style="font-style:normal;font-variant:normal;font-weight:normal;font-stretch:normal;font-family:'Ubuntu Mono';-inkscape-font-specification:'Ubuntu Mono';fill:#000000;fill-opacity:1"
         id="path5007" />
      <path
         d="m 95.079202,151.51911 q -0.784531,0 -1.357842,-0.54314 -0.573311,-0.54313 -0.573311,-1.47854 0,-0.9354 0.573311,-1.47853 0.573311,-0.54314 1.357842,-0.54314 0.814705,0 1.357841,0.54314 0.573311,0.54313 0.573311,1.47853 0,0.93541 -0.573311,1.47854 -0.543136,0.54314 -1.357841,0.54314 z m -0.63366,4.25457 -4.043351,0 0,-2.08202 6.51764,0 0,8.59966 q 0,2.08202 0.573311,2.80621 0.573311,0.694 1.719933,0.694 0.875055,0 1.599235,-0.21122 0.75436,-0.21122 1.1768,-0.45261 l 0.36209,2.1122 q -0.18105,0.0905 -0.51296,0.24139 -0.33192,0.1207 -0.78454,0.2414 -0.42243,0.12069 -0.96557,0.21122 -0.512964,0.0905 -1.086275,0.0905 -1.327667,0 -2.202721,-0.36209 -0.875053,-0.36209 -1.41819,-1.08627 -0.512962,-0.72419 -0.724182,-1.78029 -0.21122,-1.08627 -0.21122,-2.50446 l 0,-6.51764 z"
         style="font-style:normal;font-variant:normal;font-weight:normal;font-stretch:normal;font-family:'Ubuntu Mono';-inkscape-font-specification:'Ubuntu Mono';fill:#000000;fill-opacity:1"
         id="path5009" />
      <path
         d="m 114.05881,168.02443 q -1.32767,0 -2.20272,-0.36209 -0.87506,-0.36209 -1.38802,-1.08627 -0.51296,-0.72419 -0.72418,-1.78029 -0.21122,-1.08627 -0.21122,-2.50446 l 0,-13.2465 -4.04335,0 0,-2.1122 6.51764,0 0,15.3587 q 0,1.0561 0.1207,1.71993 0.15087,0.66384 0.42244,1.08628 0.30174,0.39226 0.72418,0.54313 0.42244,0.15087 0.99575,0.15087 0.87505,0 1.62941,-0.21122 0.75435,-0.21122 1.17679,-0.45261 l 0.3621,2.1122 q -0.18105,0.0905 -0.51297,0.24139 -0.33191,0.1207 -0.78453,0.2414 -0.45261,0.12069 -0.99575,0.21122 -0.51296,0.0905 -1.08627,0.0905 z"
         style="font-style:normal;font-variant:normal;font-weight:normal;font-stretch:normal;font-family:'Ubuntu Mono';-inkscape-font-specification:'Ubuntu Mono';fill:#000000;fill-opacity:1"
         id="path5011" />
      <path
         d="m 123.59387,154.20462 q 0.45262,-0.27157 1.2975,-0.54314 0.87505,-0.30174 1.93115,-0.30174 1.41819,0 2.53464,0.54314 1.11644,0.54313 1.8708,1.50871 0.78453,0.96558 1.1768,2.32342 0.42244,1.32766 0.42244,2.95707 0,1.68976 -0.48279,3.0476 -0.48279,1.35785 -1.35784,2.32342 -0.87506,0.9354 -2.1122,1.44837 -1.23715,0.51296 -2.74586,0.51296 -1.65958,0 -2.95708,-0.24139 -1.29749,-0.2414 -2.08202,-0.48279 l 0,-20.09606 2.50446,-0.42244 0,7.42287 z m 0,11.31535 q 0.57331,0.15087 1.14662,0.24139 0.57332,0.0603 1.08628,0.0603 2.08202,0 3.25882,-1.26732 1.17679,-1.29749 1.17679,-3.86231 0,-1.08627 -0.21122,-2.02167 -0.21122,-0.96558 -0.66383,-1.62941 -0.45261,-0.69401 -1.1768,-1.08627 -0.694,-0.39227 -1.68975,-0.39227 -0.87506,0 -1.68976,0.36209 -0.81471,0.33192 -1.23715,0.72418 l 0,8.87124 z"
         style="font-style:normal;font-variant:normal;font-weight:normal;font-stretch:normal;font-family:'Ubuntu Mono';-inkscape-font-specification:'Ubuntu Mono';fill:#000000;fill-opacity:1"
         id="path5013" />
      <path
         d="m 147.91432,160.69208 q 0,1.65959 -0.48278,3.01743 -0.45262,1.32767 -1.2975,2.29324 -0.84488,0.96558 -2.02167,1.50872 -1.1768,0.51296 -2.56482,0.51296 -1.35784,0 -2.53463,-0.51296 -1.14662,-0.54314 -1.9915,-1.50872 -0.84488,-0.96557 -1.32767,-2.29324 -0.45262,-1.35784 -0.45262,-3.01743 0,-1.65958 0.45262,-3.01742 0.48279,-1.35784 1.32767,-2.29325 0.84488,-0.96557 1.9915,-1.47853 1.17679,-0.54314 2.53463,-0.54314 1.38802,0 2.56482,0.54314 1.17679,0.51296 2.02167,1.47853 0.84488,0.93541 1.2975,2.29325 0.48278,1.35784 0.48278,3.01742 z m -2.56481,0 q 0,-2.38376 -1.02592,-3.7416 -1.02593,-1.38802 -2.77604,-1.38802 -1.71993,0 -2.74585,1.38802 -0.99575,1.35784 -0.99575,3.7416 0,2.3536 0.99575,3.74161 1.02592,1.35784 2.74585,1.35784 1.75011,0 2.77604,-1.35784 1.02592,-1.38801 1.02592,-3.74161 z"
         style="font-style:normal;font-variant:normal;font-weight:normal;font-stretch:normal;font-family:'Ubuntu Mono';-inkscape-font-specification:'Ubuntu Mono';fill:#000000;fill-opacity:1"
         id="path5015" />
      <path
         d="m 156.45364,153.69166 5.91415,0 0,2.08202 -5.91415,0 0,6.51764 q 0,1.0561 0.15087,1.71993 0.15087,0.66384 0.48279,1.08628 0.36209,0.39226 0.90522,0.54313 0.54314,0.15087 1.32767,0.15087 1.08628,0 1.75011,-0.18104 0.66383,-0.18105 1.26732,-0.48279 l 0.36209,2.1122 q -0.42244,0.18104 -1.35784,0.48279 -0.90523,0.30174 -2.26307,0.30174 -1.56906,0 -2.56481,-0.36209 -0.99575,-0.36209 -1.56907,-1.08627 -0.54313,-0.72419 -0.75435,-1.78029 -0.21122,-1.08627 -0.21122,-2.50446 l 0,-6.51764 -2.95708,0 0,-2.08202 2.95708,0 0,-3.92266 2.47429,-0.42244 0,4.3451 z"
         style="font-style:normal;font-variant:normal;font-weight:normal;font-stretch:normal;font-family:'Ubuntu Mono';-inkscape-font-specification:'Ubuntu Mono';fill:#000000;fill-opacity:1"
         id="path5017" />
      <path
         d="m 173.98488,165.76136 q 0,0.90523 -0.60349,1.59924 -0.60348,0.694 -1.59923,0.694 -1.02593,0 -1.62941,-0.694 -0.60349,-0.69401 -0.60349,-1.59924 0,-0.9354 0.60349,-1.62941 0.60348,-0.69401 1.62941,-0.69401 0.99575,0 1.59923,0.69401 0.60349,0.69401 0.60349,1.62941 z"
         style="font-style:normal;font-variant:normal;font-weight:normal;font-stretch:normal;font-family:'Ubuntu Mono';-inkscape-font-specification:'Ubuntu Mono';fill:#000000;fill-opacity:1"
         id="path5019" />
      <path
         d="m 180.7741,160.72226 q 0,-1.90098 0.60349,-3.289 0.60348,-1.38801 1.65958,-2.29324 1.0561,-0.90523 2.44412,-1.32767 1.41819,-0.45261 3.01742,-0.45261 1.02593,0 2.02168,0.15087 1.02592,0.1207 2.17254,0.48279 l -0.57331,2.14237 q -0.99575,-0.36209 -1.84063,-0.45261 -0.8147,-0.1207 -1.65958,-0.1207 -1.08627,0 -2.05185,0.30174 -0.96558,0.27157 -1.68976,0.90523 -0.69401,0.60349 -1.11645,1.59924 -0.42244,0.96557 -0.42244,2.35359 0,1.32767 0.39227,2.29324 0.39226,0.9354 1.08627,1.56906 0.72418,0.60349 1.71993,0.90523 0.99576,0.30174 2.20273,0.30174 0.96557,0 1.84063,-0.0905 0.90522,-0.1207 1.96132,-0.48279 l 0.36209,2.08203 q -1.0561,0.39226 -2.14237,0.54313 -1.08627,0.18105 -2.35359,0.18105 -1.68976,0 -3.10795,-0.45261 -1.38802,-0.48279 -2.41394,-1.38802 -0.99575,-0.90523 -1.56906,-2.26307 -0.54314,-1.38802 -0.54314,-3.19847 z"
         style="font-style:normal;font-variant:normal;font-weight:normal;font-stretch:normal;font-family:'Ubuntu Mono';-inkscape-font-specification:'Ubuntu Mono';fill:#000000;fill-opacity:1"
         id="path5021" />
      <path
         d="m 208.26285,160.69208 q 0,1.65959 -0.48279,3.01743 -0.45261,1.32767 -1.29749,2.29324 -0.84488,0.96558 -2.02168,1.50872 -1.17679,0.51296 -2.56481,0.51296 -1.35784,0 -2.53464,-0.51296 -1.14662,-0.54314 -1.9915,-1.50872 -0.84488,-0.96557 -1.32767,-2.29324 -0.45261,-1.35784 -0.45261,-3.01743 0,-1.65958 0.45261,-3.01742 0.48279,-1.35784 1.32767,-2.29325 0.84488,-0.96557 1.9915,-1.47853 1.1768,-0.54314 2.53464,-0.54314 1.38802,0 2.56481,0.54314 1.1768,0.51296 2.02168,1.47853 0.84488,0.93541 1.29749,2.29325 0.48279,1.35784 0.48279,3.01742 z m -2.56481,0 q 0,-2.38376 -1.02593,-3.7416 -1.02592,-1.38802 -2.77603,-1.38802 -1.71993,0 -2.74586,1.38802 -0.99575,1.35784 -0.99575,3.7416 0,2.3536 0.99575,3.74161 1.02593,1.35784 2.74586,1.35784 1.75011,0 2.77603,-1.35784 1.02593,-1.38801 1.02593,-3.74161 z"
         style="font-style:normal;font-variant:normal;font-weight:normal;font-stretch:normal;font-family:'Ubuntu Mono';-inkscape-font-specification:'Ubuntu Mono';fill:#000000;fill-opacity:1"
         id="path5023" />
      <path
         d="m 219.24628,165.76136 q 0,0.90523 -0.60349,1.59924 -0.60348,0.694 -1.59923,0.694 -1.02593,0 -1.62941,-0.694 -0.60349,-0.69401 -0.60349,-1.59924 0,-0.9354 0.60349,-1.62941 0.60348,-0.69401 1.62941,-0.69401 0.99575,0 1.59923,0.69401 0.60349,0.69401 0.60349,1.62941 z"
         style="font-style:normal;font-variant:normal;font-weight:normal;font-stretch:normal;font-family:'Ubuntu Mono';-inkscape-font-specification:'Ubuntu Mono';fill:#000000;fill-opacity:1"
         id="path5025" />
      <path
         d="m 237.5017,167.30025 q -0.8147,0.21122 -2.17254,0.45261 -1.32767,0.2414 -3.13813,0.2414 -1.59923,0 -2.65533,-0.45262 -1.0561,-0.48279 -1.71993,-1.32767 -0.66384,-0.87505 -0.93541,-2.05185 -0.27156,-1.17679 -0.27156,-2.59498 l 0,-7.87548 2.47428,0 0,7.33234 q 0,2.59499 0.75436,3.68126 0.78453,1.08627 2.59499,1.08627 0.39226,0 0.78453,-0.0302 0.42244,-0.0302 0.78453,-0.0603 0.36209,-0.0603 0.63366,-0.0905 0.27157,-0.0603 0.36209,-0.0905 l 0,-11.82831 2.50446,0 0,13.60859 z"
         style="font-style:normal;font-variant:normal;font-weight:normal;font-stretch:normal;font-family:'Ubuntu Mono';-inkscape-font-specification:'Ubuntu Mono';fill:#000000;fill-opacity:1"
         id="path5027" />
      <path
         d="m 246.82555,159.99808 q 0.8147,0.60348 1.84063,1.53888 1.02592,0.90523 2.02167,1.96133 1.02593,1.0561 1.93115,2.17255 0.90523,1.08627 1.44837,2.02167 l -2.95708,0 q -0.57331,-0.9354 -1.41819,-1.90098 -0.84488,-0.99575 -1.81045,-1.90097 -0.93541,-0.90523 -1.90098,-1.65959 -0.9354,-0.75435 -1.68976,-1.26732 l 0,6.72886 -2.50446,0 0,-20.48832 2.50446,-0.42244 0,12.76371 q 1.65958,-1.44836 3.31917,-2.86655 1.65958,-1.44837 2.98725,-2.98725 l 2.9269,0 q -1.29749,1.53888 -3.13812,3.16829 -1.81046,1.62941 -3.56056,3.13813 z"
         style="font-style:normal;font-variant:normal;font-weight:normal;font-stretch:normal;font-family:'Ubuntu Mono';-inkscape-font-specification:'Ubuntu Mono';fill:#000000;fill-opacity:1"
         id="path5029" />
    </g>
    <g
       id="g3985"
       style="fill:#000000;fill-opacity:1"
       transform="matrix(1.3133803,0,0,1.3133803,-152.85763,239.66731)">
      <path
         transform="translate(220.49446,238.89298)"
         inkscape:connector-curvature="0"
         id="path3211"
         d="m 93.395959,73.129818 17.694761,28.785142 -17.694761,0.68536 z"
         style="fill:#000000;fill-opacity:1;stroke:none" />
      <path
         transform="translate(220.49446,238.89298)"
         inkscape:connector-curvature="0"
         id="path3981"
         d="m 92.648293,76.805843 -0.06231,26.791367 -11.775741,-0.37383 z"
         style="fill:#000000;fill-opacity:1;stroke:none" />
      <path
         sodipodi:nodetypes="cccccszc"
         transform="translate(220.49446,238.89298)"
         inkscape:connector-curvature="0"
         id="path3983"
         d="m 79.439525,104.09566 31.838115,0.0623 c 0.0336,0.20156 -0.12759,2.53666 -0.49844,2.42992 -0.24923,0.62305 -10.40502,1.43303 -10.40502,1.43303 l -1.495336,7.91279 c 0.364967,-0.36497 -5.217526,0.91131 -6.604384,-5.04674 -0.92361,-3.9679 -9.179886,-2.84849 -11.090381,-4.4237 -1.910496,-1.57521 -1.744554,-2.3676 -1.744554,-2.3676 z"
         style="fill:#000000;fill-opacity:1;stroke:none" />
    </g>
    <g
       style="fill:#000000;fill-opacity:1"
       id="g3326"
       transform="matrix(1.3133803,0,0,1.3133803,-152.69397,186.74173)"
       inkscape:export-filename="/home/louis/sailbot.png"
       inkscape:export-xdpi="90"
       inkscape:export-ydpi="90">
      <g
         transform="matrix(0.93287962,0,0,0.93287962,154.22523,-173.8833)"
         style="font-style:normal;font-variant:normal;font-weight:normal;font-stretch:normal;font-size:40px;line-height:125%;font-family:'Ubuntu Mono';-inkscape-font-specification:'Ubuntu Mono';letter-spacing:0px;word-spacing:0px;fill:#000000;fill-opacity:1;stroke:none"
         id="flowRoot2994">
        <path
           d="m 142.04375,596.30422 q 1.85831,0 3.05722,-0.35967 1.25885,-0.41962 1.9782,-1.07902 0.71935,-0.71935 0.95913,-1.55858 0.29972,-0.89919 0.29972,-1.79837 0,-1.13896 -0.6594,-2.03815 -0.6594,-0.89918 -1.67847,-1.55858 -1.01907,-0.71935 -2.27793,-1.25886 -1.25885,-0.59945 -2.51771,-1.07901 -1.67847,-0.59946 -3.47684,-1.37875 -1.79836,-0.77929 -3.297,-1.9782 -1.43869,-1.19891 -2.39782,-2.93733 -0.95913,-1.79837 -0.95913,-4.43597 0,-5.21526 3.35695,-8.15259 3.41689,-2.93733 9.3515,-2.93733 3.41689,0 5.9346,0.7793 2.57766,0.77929 4.31608,1.73841 l -2.15804,5.69483 q -1.49864,-0.83924 -3.35695,-1.43869 -1.79836,-0.59946 -4.19618,-0.59946 -5.87466,0 -5.87466,4.25613 0,1.07902 0.59945,1.91826 0.59946,0.77929 1.49864,1.43869 0.95913,0.59945 2.09809,1.07902 1.19891,0.47956 2.33788,0.89918 1.73842,0.6594 3.59673,1.49864 1.91825,0.77929 3.47684,2.15804 1.61852,1.3188 2.6376,3.35694 1.01907,1.97821 1.01907,5.03543 0,5.21525 -3.41689,8.09264 -3.35695,2.81744 -10.25068,2.81744 -4.61581,0 -7.3733,-0.95913 -2.75749,-1.01907 -4.13624,-1.85831 l 2.15804,-5.99455 q 1.61853,0.95913 3.83651,1.79836 2.27793,0.83924 5.51499,0.83924 z"
           style="font-style:normal;font-variant:normal;font-weight:bold;font-stretch:normal;font-size:59.94549942px;font-family:'Ubuntu Mono';-inkscape-font-specification:'Ubuntu Mono Bold';text-align:center;text-anchor:middle;fill:#000000;fill-opacity:1"
           id="path4975" />
        <path
           d="m 191.31895,601.69932 0,-6.11445 8.09264,0 0,-24.87738 -8.09264,0 0,-6.11444 23.55858,0 0,6.11444 -8.0327,0 0,24.87738 8.0327,0 0,6.11445 -23.55858,0 z"
           style="font-style:normal;font-variant:normal;font-weight:bold;font-stretch:normal;font-size:59.94549942px;font-family:'Ubuntu Mono';-inkscape-font-specification:'Ubuntu Mono Bold';text-align:center;text-anchor:middle;fill:#000000;fill-opacity:1"
           id="path4977" />
        <path
           d="m 245.62957,601.69932 -23.3188,0 0,-37.10627 7.43325,0 0,30.99182 15.88555,0 0,6.11445 z"
           style="font-style:normal;font-variant:normal;font-weight:bold;font-stretch:normal;font-size:59.94549942px;font-family:'Ubuntu Mono';-inkscape-font-specification:'Ubuntu Mono Bold';text-align:center;text-anchor:middle;fill:#000000;fill-opacity:1"
           id="path4979" />
        <path
           d="m 276.14183,590.48951 q 0,3.35694 -1.13896,5.63487 -1.13897,2.21799 -3.11717,3.59673 -1.91826,1.3188 -4.6158,1.91826 -2.63761,0.53951 -5.69483,0.53951 -2.45776,0 -5.09536,-0.29973 -2.63761,-0.23978 -5.21526,-0.77929 l 0,-36.02725 q 2.09809,-0.35967 4.6158,-0.59945 2.51771,-0.29973 4.97548,-0.29973 4.19618,0 6.83378,0.89918 2.63761,0.83924 4.13624,2.27793 1.49864,1.37875 2.03815,3.11717 0.53951,1.73842 0.53951,3.47684 0,2.6376 -1.3188,4.67575 -1.25886,2.03814 -3.41689,3.23705 3.77656,1.37875 5.09536,3.71663 1.37875,2.33787 1.37875,4.91553 z m -17.50409,-5.03543 0,10.07085 q 0.7793,0.11989 1.67848,0.17984 0.95913,0.0599 1.85831,0.0599 1.25885,0 2.45776,-0.17984 1.19891,-0.23978 2.0981,-0.77929 0.95912,-0.59945 1.55858,-1.61853 0.59945,-1.07901 0.59945,-2.69754 0,-2.69755 -1.73842,-3.83652 -1.67847,-1.19891 -4.55585,-1.19891 l -3.95641,0 z m 2.87739,-6.11444 q 2.81744,0 4.25613,-1.19891 1.43869,-1.25885 1.43869,-3.41689 0,-1.3188 -0.41962,-2.09809 -0.41962,-0.83924 -1.13896,-1.25886 -0.71935,-0.47956 -1.67848,-0.59945 -0.95912,-0.17984 -1.9782,-0.17984 -0.83924,0 -1.73842,0.06 -0.89918,0.0599 -1.61853,0.17983 l 0,8.51226 2.87739,0 z"
           style="font-style:normal;font-variant:normal;font-weight:bold;font-stretch:normal;font-size:59.94549942px;font-family:'Ubuntu Mono';-inkscape-font-specification:'Ubuntu Mono Bold';text-align:center;text-anchor:middle;fill:#000000;fill-opacity:1"
           id="path4981" />
        <path
           d="m 287.11186,583.11621 q 0,2.69755 0.17984,5.09537 0.23978,2.33787 0.83924,4.07629 0.6594,1.73842 1.79836,2.75749 1.13896,1.01908 3.05722,1.01908 1.85831,0 2.99728,-1.01908 1.19891,-1.01907 1.79836,-2.75749 0.6594,-1.79836 0.83924,-4.13624 0.23978,-2.33787 0.23978,-5.03542 0,-2.69755 -0.23978,-5.03542 -0.17984,-2.39782 -0.83924,-4.13624 -0.59945,-1.73842 -1.73842,-2.75749 -1.13896,-1.01908 -3.05722,-1.01908 -1.91826,0 -3.05722,1.01908 -1.13896,1.01907 -1.79836,2.81743 -0.59946,1.73842 -0.83924,4.0763 -0.17984,2.33787 -0.17984,5.03542 z m -7.49319,0 q 0,-9.59128 3.53679,-14.44687 3.53678,-4.91553 9.83106,-4.91553 6.53406,0 9.95095,4.91553 3.4169,4.85559 3.4169,14.44687 0,9.59128 -3.47684,14.50681 -3.47684,4.85559 -9.83106,4.85559 -6.53406,0 -10.0109,-4.85559 -3.4169,-4.91553 -3.4169,-14.50681 z"
           style="font-style:normal;font-variant:normal;font-weight:bold;font-stretch:normal;font-size:59.94549942px;font-family:'Ubuntu Mono';-inkscape-font-specification:'Ubuntu Mono Bold';text-align:center;text-anchor:middle;fill:#000000;fill-opacity:1"
           id="path4983" />
        <path
           d="m 336.44701,564.59305 0,6.11444 -9.77112,0 0,30.99183 -7.43324,0 0,-30.99183 -9.77112,0 0,-6.11444 26.97548,0 z"
           style="font-style:normal;font-variant:normal;font-weight:bold;font-stretch:normal;font-size:59.94549942px;font-family:'Ubuntu Mono';-inkscape-font-specification:'Ubuntu Mono Bold';text-align:center;text-anchor:middle;fill:#000000;fill-opacity:1"
           id="path4985" />
      </g>
      <g
         transform="matrix(1.0067602,0,0,1.0067602,136.16415,-275.29239)"
         style="font-style:normal;font-variant:normal;font-weight:normal;font-stretch:normal;font-size:40px;line-height:125%;font-family:'Ubuntu Mono';-inkscape-font-specification:'Ubuntu Mono';letter-spacing:26.79874229px;word-spacing:0px;fill:#000000;fill-opacity:1;stroke:none"
         id="flowRoot2994-4">
        <path
           d="m 168.86339,617.3562 -2.17606,-10.73021 -12.38102,0 -2.10102,10.73021 -9.60467,0 q 3.30161,-13.73167 6.67825,-24.98714 3.37664,-11.33051 6.52817,-21.46044 l 10.05489,0 q 3.30161,10.20497 6.52817,21.68555 3.30161,11.40554 6.3781,24.76203 l -9.90481,0 z m -8.25401,-37.4432 q -0.75037,2.62628 -1.4257,5.02745 -0.60029,2.32613 -1.20058,4.65226 -0.52526,2.25109 -1.05051,4.57722 -0.45022,2.32613 -0.90044,4.80234 l 9.07942,0 q -0.45022,-2.47621 -0.90044,-4.80234 -0.45022,-2.32613 -1.05051,-4.57722 -0.52526,-2.32613 -1.20059,-4.65226 -0.60029,-2.40117 -1.35065,-5.02745 z"
           style="font-style:normal;font-variant:normal;font-weight:bold;font-stretch:normal;font-size:75.03647614px;font-family:'Ubuntu Mono';-inkscape-font-specification:'Ubuntu Mono Bold';text-align:center;letter-spacing:10.71949673px;text-anchor:middle;fill:#000000;fill-opacity:1"
           id="path4988" />
        <path
           d="m 225.35514,603.32438 q 0,4.20204 -1.4257,7.05343 -1.42569,2.77635 -3.90189,4.50219 -2.40117,1.6508 -5.77781,2.40117 -3.30161,0.67533 -7.12847,0.67533 -3.07649,0 -6.3781,-0.37519 -3.3016,-0.30014 -6.52817,-0.97547 l 0,-45.09692 q 2.62628,-0.45022 5.77781,-0.75037 3.15153,-0.37518 6.22803,-0.37518 5.25255,0 8.55415,1.12555 3.30161,1.05051 5.17752,2.85138 1.87591,1.72584 2.55124,3.9019 0.67533,2.17606 0.67533,4.35211 0,3.30161 -1.6508,5.85285 -1.57577,2.55124 -4.27708,4.05197 4.7273,1.72584 6.3781,4.65226 1.72584,2.92642 1.72584,6.15299 z m -21.91065,-6.30306 0,12.60613 q 0.97547,0.15007 2.10102,0.22511 1.20058,0.075 2.32613,0.075 1.57576,0 3.07649,-0.22511 1.50073,-0.30014 2.62628,-0.97547 1.20058,-0.75037 1.95095,-2.02599 0.75036,-1.35065 0.75036,-3.37664 0,-3.37664 -2.17605,-4.80233 -2.10103,-1.50073 -5.70278,-1.50073 l -4.9524,0 z m 3.60175,-7.65372 q 3.52671,0 5.32759,-1.50073 1.80087,-1.57577 1.80087,-4.27708 0,-1.6508 -0.52525,-2.62628 -0.52526,-1.05051 -1.4257,-1.57576 -0.90043,-0.6003 -2.10102,-0.75037 -1.20058,-0.22511 -2.4762,-0.22511 -1.05051,0 -2.17606,0.075 -1.12555,0.075 -2.02598,0.22511 l 0,10.65518 3.60175,0 z"
           style="font-style:normal;font-variant:normal;font-weight:bold;font-stretch:normal;font-size:75.03647614px;font-family:'Ubuntu Mono';-inkscape-font-specification:'Ubuntu Mono Bold';text-align:center;letter-spacing:10.71949673px;text-anchor:middle;fill:#000000;fill-opacity:1"
           id="path4990" />
        <path
           d="m 243.12806,617.3562 0,-46.44758 28.13868,0 0,7.65373 -18.90919,0 0,10.43007 16.43299,0 0,7.65372 -16.43299,0 0,13.05634 20.55999,0 0,7.65372 -29.78948,0 z"
           style="font-style:normal;font-variant:normal;font-weight:bold;font-stretch:normal;font-size:75.03647614px;font-family:'Ubuntu Mono';-inkscape-font-specification:'Ubuntu Mono Bold';text-align:center;letter-spacing:10.71949673px;text-anchor:middle;fill:#000000;fill-opacity:1"
           id="path4992" />
        <path
           d="m 302.69631,570.38337 q 3.97693,0 7.2035,0.90044 3.22657,0.90043 5.5527,2.77635 2.32613,1.87591 3.52672,4.80233 1.27562,2.85139 1.27562,6.75328 0,4.05197 -1.65081,7.35358 -1.6508,3.3016 -5.47766,5.02744 1.27562,1.95095 2.70131,4.35212 1.4257,2.32613 2.77635,4.95241 1.35066,2.55124 2.55124,5.17751 1.27562,2.55124 2.17606,4.87737 l -9.6797,0 q -1.72584,-4.50219 -4.05197,-8.62919 -2.2511,-4.20204 -4.87737,-8.47912 l -4.80234,0 0,17.10831 -9.22948,0 0,-45.77225 q 1.35065,-0.30014 2.92642,-0.52525 1.6508,-0.30015 3.3016,-0.37518 1.65081,-0.15008 3.15153,-0.22511 1.50073,-0.075 2.62628,-0.075 z m 8.17898,15.15737 q 0,-3.67679 -2.2511,-5.40263 -2.25109,-1.72584 -5.92788,-1.72584 -0.52525,0 -1.27562,0.075 -0.75036,0 -1.50073,0.15007 l 0,13.95679 2.02599,0 q 4.72729,0 6.82832,-1.80088 2.10102,-1.87591 2.10102,-5.25255 z"
           style="font-style:normal;font-variant:normal;font-weight:bold;font-stretch:normal;font-size:75.03647614px;font-family:'Ubuntu Mono';-inkscape-font-specification:'Ubuntu Mono Bold';text-align:center;letter-spacing:10.71949673px;text-anchor:middle;fill:#000000;fill-opacity:1"
           id="path4994" />
      </g>
    </g>
    <path
       style="fill:#000000;stroke:#000000;stroke-width:2;stroke-linecap:round;stroke-linejoin:miter;stroke-miterlimit:4;stroke-dasharray:none;stroke-opacity:1"
       d="m 211.33726,715.92153 249.22205,0"
       id="path5763"
       inkscape:connector-curvature="0" />
  </g>
</svg>
